#!OML:ASF I:\golf\golf\golf 2\Subject 1\2002-09-07\Subject1.ASF
:FULLY-SPECIFIED
:DEGREES
220
root -6.25068 17.9872 2.43207 4.08236 45.9498 -11.8168
lowerback 4.6389 -9.91999 -14.2058
upperback 0.766725 -13.7615 -2.43759
thorax 0.925826 -6.8674 5.28587
lowerneck -6.25538 20.8145 1.89813
upperneck 12.3711 30.3129 -13.8885
head 7.30018 13.7396 -1.66778
rclavicle 6.12257e-014 -2.54444e-014
rhumerus 25.85 -20.3848 -71.5958
rradius 97.5397
rwrist -13.6541
rhand -61.1148 19.3781
rfingers 7.12502
rthumb -33.2124 -7.57699
lclavicle 6.12257e-014 -2.54444e-014
lhumerus 102.767 -47.3735 48.5187
lradius 29.4333
lwrist -4.48539
lhand -13.2901 4.7665
lfingers 7.12502
lthumb -167.186 -145.647
rfemur -32.0043 12.1982 24.1005
rtibia 28.7367
rfoot -5.86284 16.6664
rtoes 10.8861
lfemur -8.44535 21.691 1.64158
ltibia 31.3164
lfoot -2.50241 14.472
ltoes -27.2966
221
root -6.26419 17.981 2.35936 3.86779 47.0254 -12.3288
lowerback 4.79195 -9.92593 -13.8524
upperback 1.01859 -13.76 -2.20321
thorax 1.088 -6.89386 5.34952
lowerneck -6.72268 20.6876 1.83034
upperneck 12.6883 30.2015 -13.7877
head 7.44619 13.6421 -1.58263
rclavicle 3.57812e-015 3.49861e-014
rhumerus 25.6728 -20.0798 -72.436
rradius 96.9267
rwrist -14.4426
rhand -61.1081 20.5488
rfingers 7.12502
rthumb -33.2061 -6.4077
lclavicle 3.57812e-015 3.49861e-014
lhumerus 101.704 -47.7015 49.1439
lradius 29.1881
lwrist -4.59475
lhand -12.817 5.3625
lfingers 7.12502
lthumb -166.73 -145.08
rfemur -32.3917 11.5687 24.1489
rtibia 28.7407
rfoot -5.90362 16.1768
rtoes 10.0199
lfemur -9.31387 21.8363 1.44571
ltibia 31.1991
lfoot -3.54958 14.7527
ltoes -26.3184
222
root -6.27907 17.9757 2.28742 3.87145 48.159 -12.5073
lowerback 4.93858 -9.90673 -13.8424
upperback 1.25983 -13.7366 -1.98754
thorax 1.31298 -6.91214 5.5594
lowerneck -7.02171 20.4908 1.94489
upperneck 12.9681 30.0006 -13.8639
head 7.60204 13.5086 -1.59129
rclavicle -9.14409e-014 -2.22639e-014
rhumerus 25.4474 -19.7974 -73.2066
rradius 96.3593
rwrist -15.4047
rhand -61.3179 21.4101
rfingers 7.12502
rthumb -33.4056 -5.50368
lclavicle -9.14409e-014 -2.22639e-014
lhumerus 100.452 -48.1598 50.1139
lradius 28.7322
lwrist -5.03139
lhand -12.3655 5.47088
lfingers 7.12502
lthumb -166.295 -145
rfemur -32.7695 10.8481 23.9383
rtibia 28.767
rfoot -5.90339 15.7263
rtoes 9.55483
lfemur -10.1765 21.8791 0.944402
ltibia 31.0596
lfoot -4.31611 15.0093
ltoes -26.554
223
root -6.29416 17.9717 2.2131 3.89098 49.3221 -12.778
lowerback 5.05747 -9.90022 -13.6991
upperback 1.41851 -13.7299 -1.75044
thorax 1.44237 -6.92967 5.73145
lowerneck -7.28922 20.3023 2.03297
upperneck 13.2929 29.798 -13.8232
head 7.744 13.3816 -1.57087
rclavicle 7.95139e-015 -1.59028e-014
rhumerus 25.1004 -19.4166 -73.9607
rradius 95.7672
rwrist -16.5604
rhand -61.4404 22.7676
rfingers 7.12502
rthumb -33.522 -4.121
lclavicle 7.95139e-015 -1.59028e-014
lhumerus 99.0019 -48.5983 51.2015
lradius 28.0917
lwrist -5.69729
lhand -12.239 4.52304
lfingers 7.12502
lthumb -166.173 -145.957
rfemur -33.277 10.1284 23.7609
rtibia 28.8396
rfoot -5.91596 15.2348
rtoes 9.03262
lfemur -11.1036 21.6476 0.444724
ltibia 30.8795
lfoot -5.04037 15.3251
ltoes -26.4818
224
root -6.30889 17.9669 2.13619 3.7903 50.5416 -13.2013
lowerback 5.18622 -9.90287 -13.3927
upperback 1.53883 -13.735 -1.49918
thorax 1.49275 -6.9462 5.84585
lowerneck -7.3484 20.0954 2.17418
upperneck 13.56 29.5549 -13.8262
head 7.84387 13.252 -1.59903
rclavicle 7.7526e-014 6.36111e-015
rhumerus 24.6427 -19.0786 -74.6842
rradius 94.9344
rwrist -17.2684
rhand -61.3754 22.5764
rfingers 7.12502
rthumb -33.4602 -4.32554
lclavicle 7.7526e-014 6.36111e-015
lhumerus 97.8967 -48.9881 51.7685
lradius 28.0052
lwrist -5.1372
lhand -11.2373 5.89341
lfingers 7.12502
lthumb -165.208 -144.654
rfemur -33.8073 9.62558 23.5903
rtibia 28.955
rfoot -5.91723 14.4305
rtoes 8.16752
lfemur -12.0577 21.4199 0.0573298
ltibia 30.7027
lfoot -5.74124 15.4684
ltoes -26.007
225
root -6.3255 17.9592 2.05632 3.66565 51.8626 -13.6236
lowerback 5.27957 -9.93602 -13.1597
upperback 1.69182 -13.7756 -1.18147
thorax 1.63866 -6.98967 6.04753
lowerneck -7.27661 19.8429 2.3317
upperneck 13.7278 29.2586 -14.0021
head 7.91559 13.1006 -1.70157
rclavicle -8.66701e-014 -6.67916e-014
rhumerus 24.2612 -18.6929 -75.4285
rradius 93.9359
rwrist -17.695
rhand -61.5342 20.7092
rfingers 7.12502
rthumb -33.6112 -6.16008
lclavicle -8.66701e-014 -6.67916e-014
lhumerus 96.6773 -49.3122 52.6435
lradius 27.5632
lwrist -4.97425
lhand -10.6712 6.84582
lfingers 7.12502
lthumb -164.663 -143.743
rfemur -34.3117 9.30641 23.3062
rtibia 29.0549
rfoot -5.97226 13.3167
rtoes 7.22972
lfemur -13.084 21.4386 -0.34318
ltibia 30.6066
lfoot -6.59329 15.3163
ltoes -24.8924
226
root -6.34436 17.9505 1.97681 3.57505 53.2167 -14.0668
lowerback 5.28956 -9.9602 -12.976
upperback 1.82578 -13.797 -0.820295
thorax 1.82921 -7.02702 6.30355
lowerneck -7.1766 19.5523 2.51057
upperneck 13.9194 28.9071 -14.1564
head 7.98403 12.9269 -1.81189
rclavicle 3.18055e-015 3.18055e-014
rhumerus 23.856 -18.3339 -76.2571
rradius 93.1472
rwrist -18.3594
rhand -61.7322 20.8568
rfingers 7.12502
rthumb -33.7993 -5.97134
lclavicle 3.18055e-015 3.18055e-014
lhumerus 95.2828 -49.675 53.7314
lradius 26.9368
lwrist -5.08741
lhand -10.4159 7.37264
lfingers 7.12502
lthumb -164.417 -143.235
rfemur -34.8558 8.83213 23.0695
rtibia 29.1262
rfoot -6.08164 12.2854
rtoes 6.35927
lfemur -14.147 21.627 -0.797234
ltibia 30.5628
lfoot -7.46038 14.8893
ltoes -23.8809
227
root -6.36223 17.9474 1.89593 3.3743 54.6291 -14.7052
lowerback 5.24012 -9.90799 -12.5363
upperback 1.96949 -13.6974 -0.5178
thorax 1.96226 -6.99639 6.37293
lowerneck -7.23599 19.1668 2.76311
upperneck 14.2491 28.4096 -14.1324
head 8.09204 12.6835 -1.88174
rclavicle 1.10524e-013 -7.95139e-014
rhumerus 23.3052 -18.3503 -77.0954
rradius 92.5373
rwrist -19.2664
rhand -61.5371 22.3279
rfingers 7.12502
rthumb -33.6139 -4.54077
lclavicle 1.10524e-013 -7.95139e-014
lhumerus 94.0612 -50.2998 54.653
lradius 26.3008
lwrist -5.25384
lhand -10.3312 7.69436
lfingers 7.12502
lthumb -164.335 -142.92
rfemur -35.4401 8.17562 22.9707
rtibia 29.1977
rfoot -6.13321 11.3866
rtoes 5.62923
lfemur -15.4345 21.7977 -1.24706
ltibia 30.4985
lfoot -7.87876 14.7178
ltoes -23.3558
228
root -6.37925 17.9476 1.81102 3.02635 56.1547 -15.4173
lowerback 5.22948 -9.80653 -11.9477
upperback 2.21544 -13.5235 -0.258569
thorax 2.12213 -6.92994 6.32562
lowerneck -7.67749 18.7345 2.97454
upperneck 14.7357 27.8771 -14.0502
head 8.29956 12.3925 -1.8933
rclavicle -2.14687e-014 1.90833e-014
rhumerus 22.9311 -18.5993 -78.0257
rradius 91.9573
rwrist -20.1747
rhand -60.9679 23.0095
rfingers 7.12502
rthumb -33.0728 -3.97535
lclavicle -2.14687e-014 1.90833e-014
lhumerus 92.9955 -51.0422 55.463
lradius 25.7886
lwrist -5.55527
lhand -10.0774 8.19856
lfingers 7.12502
lthumb -164.091 -142.435
rfemur -35.9176 7.5744 22.8198
rtibia 29.2539
rfoot -6.20048 10.3404
rtoes 4.26594
lfemur -16.8916 21.759 -1.6828
ltibia 30.4139
lfoot -8.11434 14.8072
ltoes -22.1892
229
root -6.39342 17.946 1.72506 2.75848 57.7348 -15.8757
lowerback 5.24783 -9.71401 -11.5657
upperback 2.5077 -13.3707 0.00212357
thorax 2.3691 -6.8814 6.378
lowerneck -8.13723 18.3166 3.23019
upperneck 15.2275 27.3969 -14.1383
head 8.55164 12.1131 -1.95053
rclavicle 9.06458e-014 -4.13472e-014
rhumerus 22.518 -18.5365 -78.699
rradius 91.4912
rwrist -20.9101
rhand -60.795 22.7612
rfingers 7.12502
rthumb -32.9084 -4.25833
lclavicle 9.06458e-014 -4.13472e-014
lhumerus 91.6183 -51.6854 56.5041
lradius 25.3768
lwrist -5.99751
lhand -9.77347 8.69629
lfingers 7.12502
lthumb -163.798 -141.961
rfemur -36.2295 7.08625 22.4197
rtibia 29.3016
rfoot -6.37371 9.07737
rtoes 2.15992
lfemur -18.079 21.4569 -2.21375
ltibia 30.2945
lfoot -8.93975 14.6554
ltoes -18.3802
230
root -6.4036 17.945 1.63618 2.37835 59.3663 -16.4517
lowerback 5.17277 -9.68408 -11.0905
upperback 2.82719 -13.2871 0.297051
thorax 2.69683 -6.86989 6.39202
lowerneck -8.59908 17.9134 3.48151
upperneck 15.6929 26.944 -14.2917
head 8.80826 11.8432 -2.02791
rclavicle 1.37559e-013 -6.36111e-014
rhumerus 21.6109 -17.9306 -78.6771
rradius 91.115
rwrist -21.9734
rhand -61.2201 21.2007
rfingers 7.12502
rthumb -33.3126 -5.73303
lclavicle 1.37559e-013 -6.36111e-014
lhumerus 90.39 -52.0751 57.162
lradius 24.9783
lwrist -6.13199
lhand -9.68575 9.25602
lfingers 7.12502
lthumb -163.714 -141.408
rfemur -36.51 6.4993 22.0503
rtibia 29.3708
rfoot -6.58274 7.84984
rtoes 0.283484
lfemur -19.159 21.1171 -2.75045
ltibia 30.1294
lfoot -9.82561 14.4025
ltoes -14.3615
231
root -6.41492 17.9451 1.5439 1.73368 61.1622 -17.3337
lowerback 5.02293 -9.69448 -10.4046
upperback 3.18929 -13.2433 0.630132
thorax 3.07868 -6.87589 6.3175
lowerneck -9.06889 17.4567 3.64673
upperneck 16.0718 26.4063 -14.4516
head 9.01812 11.5369 -2.11958
rclavicle 1.67774e-013 -3.18055e-015
rhumerus 21.2817 -17.7742 -79.4845
rradius 90.1742
rwrist -22.6824
rhand -61.192 19.538
rfingers 7.12502
rthumb -33.2859 -7.40141
lclavicle 1.67774e-013 -3.18055e-015
lhumerus 89.3137 -52.4221 57.6756
lradius 24.5499
lwrist -6.25476
lhand -9.7302 9.86298
lfingers 7.12502
lthumb -163.757 -140.797
rfemur -36.7849 5.76805 21.8081
rtibia 29.4299
rfoot -6.79332 6.59252
rtoes -2.61453
lfemur -20.4144 20.9477 -3.28815
ltibia 29.9833
lfoot -10.1362 14.1491
ltoes -13.6912
